<?xml version="1.0" encoding="UTF-8" standalone="no"?>
<svg
   width="1224pt"
   height="472pt"
   viewBox="0 0 1224 472"
   version="1.1"
   id="svg8"
   sodipodi:docname="copy.svg"
   inkscape:version="1.3.2 (091e20e, 2023-11-25)"
   xml:space="preserve"
   xmlns:inkscape="http://www.inkscape.org/namespaces/inkscape"
   xmlns:sodipodi="http://sodipodi.sourceforge.net/DTD/sodipodi-0.dtd"
   xmlns="http://www.w3.org/2000/svg"
   xmlns:svg="http://www.w3.org/2000/svg"><defs
     id="defs8"><inkscape:path-effect
       simplifyJustCoalesce="false"
       simplifyindividualpaths="false"
       simplify_just_coalesce="false"
       simplify_individual_paths="false"
       helper_size="0"
       smooth_angles="360"
       threshold="0.0175676"
       steps="1"
       is_visible="true"
       id="path-effect928"
       effect="simplify" /><inkscape:path-effect
       simplifyJustCoalesce="false"
       simplifyindividualpaths="false"
       simplify_just_coalesce="false"
       simplify_individual_paths="false"
       helper_size="0"
       smooth_angles="360"
       threshold="0.0175676"
       steps="1"
       is_visible="true"
       id="path-effect924"
       effect="simplify" /><inkscape:path-effect
       only_selected="false"
       apply_with_weight="true"
       apply_no_weight="true"
       helper_size="0"
       steps="2"
       weight="33.333333"
       is_visible="true"
       id="path-effect920"
       effect="bspline" /><inkscape:path-effect
       simplifyJustCoalesce="false"
       simplifyindividualpaths="false"
       simplify_just_coalesce="false"
       simplify_individual_paths="false"
       helper_size="0"
       smooth_angles="360"
       threshold="0.0175676"
       steps="1"
       is_visible="true"
       id="path-effect918"
       effect="simplify" /><inkscape:path-effect
       is_visible="true"
       id="path-effect914"
       effect="spiro" /><inkscape:path-effect
       simplifyJustCoalesce="false"
       simplifyindividualpaths="false"
       simplify_just_coalesce="false"
       simplify_individual_paths="false"
       helper_size="0"
       smooth_angles="360"
       threshold="0.0175676"
       steps="1"
       is_visible="true"
       id="path-effect912"
       effect="simplify" /><inkscape:path-effect
       is_visible="true"
       id="path-effect908"
       effect="spiro" /><inkscape:path-effect
       simplifyJustCoalesce="false"
       simplifyindividualpaths="false"
       simplify_just_coalesce="false"
       simplify_individual_paths="false"
       helper_size="0"
       smooth_angles="360"
       threshold="0.0175676"
       steps="1"
       is_visible="true"
       id="path-effect906"
       effect="simplify" /><inkscape:path-effect
       is_visible="true"
       id="path-effect902"
       effect="spiro" /><inkscape:path-effect
       simplifyJustCoalesce="false"
       simplifyindividualpaths="false"
       simplify_just_coalesce="false"
       simplify_individual_paths="false"
       helper_size="0"
       smooth_angles="360"
       threshold="0.0175676"
       steps="1"
       is_visible="true"
       id="path-effect900"
       effect="simplify" /><inkscape:path-effect
       simplifyJustCoalesce="false"
       simplifyindividualpaths="false"
       simplify_just_coalesce="false"
       simplify_individual_paths="false"
       helper_size="0"
       smooth_angles="360"
       threshold="0.0175676"
       steps="1"
       is_visible="true"
       id="path-effect896"
       effect="simplify" /><inkscape:path-effect
       simplifyJustCoalesce="false"
       simplifyindividualpaths="false"
       simplify_just_coalesce="false"
       simplify_individual_paths="false"
       helper_size="0"
       smooth_angles="360"
       threshold="0.000408163"
       steps="1"
       is_visible="true"
       id="path-effect892"
       effect="simplify" /><inkscape:path-effect
       simplifyJustCoalesce="false"
       simplifyindividualpaths="false"
       simplify_just_coalesce="false"
       simplify_individual_paths="false"
       helper_size="0"
       smooth_angles="360"
       threshold="0.000408163"
       steps="1"
       is_visible="true"
       id="path-effect851"
       effect="simplify" /><inkscape:path-effect
       simplifyJustCoalesce="false"
       simplifyindividualpaths="false"
       simplify_just_coalesce="false"
       simplify_individual_paths="false"
       helper_size="0"
       smooth_angles="360"
       threshold="0.000408163"
       steps="1"
       is_visible="true"
       id="path-effect847"
       effect="simplify" /><inkscape:path-effect
       simplifyJustCoalesce="false"
       simplifyindividualpaths="false"
       simplify_just_coalesce="false"
       simplify_individual_paths="false"
       helper_size="0"
       smooth_angles="360"
       threshold="0.000408163"
       steps="1"
       is_visible="true"
       id="path-effect843"
       effect="simplify" /><inkscape:path-effect
       simplifyJustCoalesce="false"
       simplifyindividualpaths="false"
       simplify_just_coalesce="false"
       simplify_individual_paths="false"
       helper_size="0"
       smooth_angles="360"
       threshold="0.000408163"
       steps="1"
       is_visible="true"
       id="path-effect839"
       effect="simplify" /><inkscape:path-effect
       simplifyJustCoalesce="false"
       simplifyindividualpaths="false"
       simplify_just_coalesce="false"
       simplify_individual_paths="false"
       helper_size="0"
       smooth_angles="360"
       threshold="0.000408163"
       steps="1"
       is_visible="true"
       id="path-effect835"
       effect="simplify" /><inkscape:path-effect
       simplifyJustCoalesce="false"
       simplifyindividualpaths="false"
       simplify_just_coalesce="false"
       simplify_individual_paths="false"
       helper_size="0"
       smooth_angles="360"
       threshold="0.000408163"
       steps="1"
       is_visible="true"
       id="path-effect831"
       effect="simplify" /><inkscape:path-effect
       simplifyJustCoalesce="false"
       simplifyindividualpaths="false"
       simplify_just_coalesce="false"
       simplify_individual_paths="false"
       helper_size="0"
       smooth_angles="360"
       threshold="0.000408163"
       steps="1"
       is_visible="true"
       id="path-effect827"
       effect="simplify" /><inkscape:path-effect
       simplifyJustCoalesce="false"
       simplifyindividualpaths="false"
       simplify_just_coalesce="false"
       simplify_individual_paths="false"
       helper_size="0"
       smooth_angles="360"
       threshold="0.000408163"
       steps="1"
       is_visible="true"
       id="path-effect823"
       effect="simplify" /><inkscape:path-effect
       simplifyJustCoalesce="false"
       simplifyindividualpaths="false"
       simplify_just_coalesce="false"
       simplify_individual_paths="false"
       helper_size="0"
       smooth_angles="360"
       threshold="0.000408163"
       steps="1"
       is_visible="true"
       id="path-effect819"
       effect="simplify" /><clipPath
       id="clipPath5072-1"
       clipPathUnits="userSpaceOnUse"><ellipse
         clip-path="none"
         ry="5.7218075"
         rx="5.3549418"
         cy="27.031374"
         cx="58.248215"
         id="ellipse5074-1"
         style="opacity:1;fill:none;fill-opacity:1;stroke:#509fd6;stroke-width:1.20000005;stroke-miterlimit:4;stroke-dasharray:none;stroke-dashoffset:0;stroke-opacity:1" /></clipPath><clipPath
       id="clipPath5114-1"
       clipPathUnits="userSpaceOnUse"><path
         inkscape:connector-curvature="0"
         id="path5116-8"
         d="m 58.248238,21.309806 a 5.3549418,5.7218075 0 0 0 -5.012614,3.729487 1.994886,1.994886 0 0 0 -1.923397,1.992127 1.994886,1.994886 0 0 0 1.919263,1.991093 5.3549418,5.7218075 0 0 0 5.016748,3.730521 5.3549418,5.7218075 0 0 0 5.354711,-5.721614 5.3549418,5.7218075 0 0 0 -5.354711,-5.721614 z"
         clip-path="none"
         style="opacity:1;fill:none;fill-opacity:1;stroke:#509fd6;stroke-width:0.81854123;stroke-miterlimit:4;stroke-dasharray:none;stroke-dashoffset:0;stroke-opacity:1" /></clipPath></defs><sodipodi:namedview
     id="namedview8"
     pagecolor="#ffffff"
     bordercolor="#666666"
     borderopacity="1.0"
     inkscape:showpageshadow="2"
     inkscape:pageopacity="0.0"
     inkscape:pagecheckerboard="0"
     inkscape:deskcolor="#d1d1d1"
     inkscape:document-units="pt"
     inkscape:zoom="0.41463187"
     inkscape:cx="766.9454"
     inkscape:cy="217.06002"
     inkscape:window-width="1664"
     inkscape:window-height="939"
     inkscape:window-x="167"
     inkscape:window-y="106"
     inkscape:window-maximized="0"
     inkscape:current-layer="svg8" /><path
     fill="none"
     stroke-width="4.81412"
     stroke-linecap="butt"
     stroke-linejoin="miter"
     stroke="#51924b"
     stroke-opacity="1"
     stroke-miterlimit="10"
     d="m 1023.9397,285.48903 c 10.6695,0 10.6695,23.94275 21.3388,23.94275 10.6726,0 10.6726,-23.94275 21.3421,-23.94275 10.6725,0 10.6725,23.94275 21.342,23.94275 10.9014,0 10.9014,-23.94275 21.7994,-23.94275 10.9013,0 10.9013,23.94275 21.8026,23.94275 10.9013,0 10.9013,-23.94275 21.8026,-23.94275 10.5931,0 10.5931,23.94275 21.1863,23.94275 10.5933,0 10.5933,-23.94275 21.1865,-23.94275"
     id="path1" /><path
     fill-rule="nonzero"
     fill="#33348e"
     fill-opacity="1"
     d="m 598.73215,233.05122 h 52.04795 c -8.4936,-12.794 -25.8715,-37.48208 -65.77939,-51.31518 -18.93432,-6.56555 -31.72873,-8.93447 -53.73778,-8.93447 -42.07099,0 -76.23282,10.78074 -102.48231,32.33603 -22.12658,18.11633 -33.18668,39.42421 -33.18668,63.91745 0,17.86584 5.98745,34.5163 17.9687,49.94827 11.9749,15.43507 28.25697,27.32604 48.83347,35.66983 20.57651,8.34378 43.98951,12.51877 70.24219,12.51877 24.53108,0 45.91122,-3.81624 64.1404,-11.44874 18.22598,-7.63249 33.07233,-18.70391 44.53583,-33.21739 11.46034,-14.51041 17.19369,-29.85889 17.19369,-46.04855 l -0.34306,-7.80257 H 498.12707 v 33.09061 h 106.04621 c -7.00389,10.90444 -16.21219,18.91731 -27.63123,24.03244 -11.41586,5.11822 -25.44588,7.67579 -42.08686,7.67579 -25.59199,0 -47.10871,-6.20681 -64.55332,-18.62043 -17.44143,-12.41362 -26.16373,-27.5549 -26.16373,-45.42383 0,-17.27825 8.40466,-31.95563 25.214,-44.03525 16.80934,-12.07963 37.65901,-18.11943 62.56173,-18.11943 24.54062,0 38.45628,6.13568 57.74953,18.38848 -0.003,0 -0.003,0.003 -0.006,0.003 3.34788,2.26068 6.49884,4.73165 9.47509,7.38508"
     id="path2"
     style="stroke-width:0.802354" /><path
     fill-rule="nonzero"
     fill="#33348e"
     fill-opacity="1"
     d="m 707.27815,234.21403 h -22.9683 v 97.44413 h 56.43134 v -17.68647 h -33.46304 z m 0,0"
     id="path3"
     style="stroke-width:0.802354" /><path
     fill-rule="nonzero"
     fill="#33348e"
     fill-opacity="1"
     d="m 819.8232,294.90902 c 0,6.53153 -0.5622,10.95393 -1.68346,13.27336 -1.12126,2.31635 -3.14462,4.22447 -6.07004,5.72438 -2.92543,1.49989 -6.40992,2.24829 -10.4566,2.24829 -3.82754,0 -7.09601,-0.67108 -9.80228,-2.01635 -2.70627,-1.34528 -4.64702,-3.14516 -5.82228,-5.39656 -1.17843,-2.2483 -1.76607,-6.08929 -1.76607,-11.51677 v -63.01442 h -23.04772 v 58.09723 c 0,11.61572 1.39444,19.86364 4.18328,24.74372 2.78886,4.8801 7.42318,8.94066 13.90297,12.18787 6.47978,3.24722 14.09353,4.86772 22.84443,4.86772 6.67036,0 12.52124,-0.85047 17.55261,-2.54829 5.03136,-1.7009 9.47192,-4.31724 13.32803,-7.85206 3.85611,-3.53172 6.46709,-7.19644 7.83292,-10.99412 1.36584,-3.7977 2.05193,-10.60137 2.05193,-20.40484 V 234.21095 H 819.8232 Z m 0,0"
     id="path4"
     style="stroke-width:0.802354" /><path
     fill-rule="nonzero"
     fill="#cc2229"
     fill-opacity="1"
     d="m 934.67748,252.36439 v -18.15036 h -65.86515 v 97.44413 h 65.86515 v -18.21838 h -43.06202 v -25.63441 h 43.06202 v -17.81945 h -43.06202 v -17.62153 z m 0,0"
     id="path5"
     style="stroke-width:0.802354" /><path
     fill-rule="nonzero"
     fill="#cc2229"
     fill-opacity="1"
     d="m 1202.153,164.866 c -3.0557,-2.17408 -7.5216,-4.23374 -7.5216,-4.23374 -7.636,-3.89047 -15.8818,-5.74292 -20.9132,-6.2934 -10.4598,-1.14116 -36.1566,1.87101 -50.7615,12.24353 -7.0992,5.0409 -68.4445,62.21963 -96.6125,88.33029 -2.6364,2.44004 -5.0377,4.06674 -6.9149,3.1668 -1.8772,-0.90303 -3.4718,-6.01816 -3.4718,-6.01816 l -20.42405,-78.63196 c 0,0 -3.55752,-17.8813 -19.03593,-16.48346 -16.1677,2.13079 -29.6482,4.9605 -33.18032,5.72746 l -2.60145,0.47626 c 0,0 -52.82299,9.8808 -57.85435,11.82294 -4.23729,1.63597 -8.35386,2.41839 -15.09092,9.37361 -4.33893,4.47496 -0.34624,7.51497 4.87253,6.55627 0,0 22.53634,-4.02345 35.97872,-5.20481 13.44556,-1.18446 18.30224,1.09786 21.33883,2.36273 3.03343,1.26796 5.98429,3.04001 11.01565,7.93865 5.02818,4.89865 7.53434,11.40235 8.15373,13.34449 0.34306,1.07314 2.20122,6.10785 3.78624,10.37252 l 21.9201,70.22014 c 0,0 2.64276,6.56555 0.95287,9.99521 -1.01004,2.04729 -2.20752,4.0482 -6.41304,8.02216 -18.71833,17.68957 -84.58984,80.71637 -88.56665,84.18315 -4.57079,3.98633 -9.37981,7.72837 -9.37981,7.72837 l 0.01,0.0278 c -2.18534,1.61433 -7.08329,4.97286 -13.6012,7.87989 -8.74453,3.90284 -9.59581,4.08839 -15.24656,4.94813 -5.65077,0.86283 -38.66274,2.32562 -45.33312,2.37511 -6.66719,0.0526 -11.58739,-0.39585 -21.81529,10.65083 -5.58405,6.03364 -11.93044,13.10019 -15.38632,16.46491 -3.45589,3.36472 -7.92822,8.3809 4.8789,8.90665 12.81029,0.52882 29.28611,0.48552 34.76216,0.19791 5.47924,-0.28452 25.50941,-0.9587 38.82791,-6.92738 13.32169,-5.96559 20.47805,-9.71689 27.44383,-14.84439 6.96577,-5.12441 15.63406,-12.08581 15.63406,-12.08581 l 1.92172,-1.61123 95.91039,-89.94152 c 0,0 1.61359,-1.89885 3.8466,-1.43187 2.94127,0.61233 3.61782,3.53172 3.61782,3.53172 l 6.88959,26.71682 26.31306,90.84455 c 1.8962,6.37999 7.9376,11.04361 15.1004,11.04361 l 107.3484,-12.56517 c 4.6916,-0.66489 8.5413,-2.59776 11.6956,-4.69452 0.6351,-0.42369 2.4837,-4.28941 2.2932,-4.80588 -0.1906,-0.51647 -3.4019,-1.63288 -5.1266,-1.49062 -0.7179,0.0587 -3.2686,0.43295 -3.2686,0.43295 -2.9985,0.43297 -12.1719,1.42878 -17.8225,1.81536 -6.3337,0.43296 -26.8816,-0.65563 -26.8816,-0.65563 -19.4363,-1.14735 -32.3164,-12.0487 -41.7375,-27.66314 -3.0239,-5.01616 -11.7017,-30.41552 -11.7017,-30.41552 l -22.7746,-76.79497 -2.8048,-9.32414 c 0,0 -1.4134,-4.64814 -0.091,-7.4191 1.9344,-4.05437 11.4699,-12.38578 11.4699,-12.38578 l 61.7898,-55.66027 c 6.683,-5.9594 16.1042,-10.7529 21.253,-12.93936 23.9721,-10.18078 43.132,-2.77406 45.3554,-1.94523 2.2266,0.83189 6.5815,2.63179 8.8145,2.63179 2.2297,0 4.3451,-1.94524 5.5204,-3.43277 1.1786,-1.48753 12.5753,-15.44435 12.5753,-15.44435 0,0 9.6116,-11.68686 10.5741,-13.04141 0.9593,-1.35456 3.5258,-3.77604 0.4701,-5.94704"
     id="path6"
     style="stroke-width:0.802354" /><path
     fill-rule="nonzero"
     fill="#ffffff"
     fill-opacity="1"
     d="m 1025.7027,290.45262 c 0,0 -1.4136,-4.65124 -0.091,-7.42219 1.3659,-2.86374 6.5211,-7.85516 9.4338,-10.5457 l 0.4415,-1.54939 c -1.6961,1.5061 -9.4211,8.49223 -11.1396,12.09509 -1.3213,2.77095 0.091,7.42219 0.091,7.42219 l 2.8049,9.32104 0.6162,-2.15243 z m 0,0"
     id="path7"
     style="stroke-width:0.802354" /><path
     fill-rule="nonzero"
     fill="#51924b"
     fill-opacity="1"
     d="m 1206.3935,285.48903 -11.2316,7.16551 v -14.32793 z m 0,0"
     id="path8"
     style="stroke-width:0.802354" /><g
     id="g1"
     transform="matrix(7.1673843,0,0,6.6417041,-1.6033516,-0.41276588)"><g
       transform="translate(-30.686612,-13.043974)"
       inkscape:label="background"
       id="layer2"><g
         id="g5183"><circle
           transform="translate(0.0160103,0.18384335)"
           r="1.994886"
           cy="27.031374"
           cx="53.307343"
           id="circle5067-0"
           style="opacity:1;fill:none;fill-opacity:1;stroke:#509fd6;stroke-width:1.2;stroke-miterlimit:4;stroke-dasharray:none;stroke-dashoffset:0;stroke-opacity:1"
           clip-path="url(#clipPath5072-1)" /><path
           style="opacity:1;fill:none;fill-opacity:1;stroke:#509fd6;stroke-width:1.2;stroke-miterlimit:4;stroke-dasharray:none;stroke-dashoffset:0;stroke-opacity:1"
           clip-path="none"
           d="m 58.24859,21.500452 a 5.3549417,5.7218074 0 0 0 -5.012613,3.729488 1.994886,1.994886 0 0 0 -1.923397,1.992127 1.994886,1.994886 0 0 0 1.919263,1.991093 5.3549417,5.7218074 0 0 0 5.016747,3.730521 5.3549417,5.7218074 0 0 0 5.015714,-3.729488 1.994886,1.994886 0 0 0 1.91978,-1.992126 1.994886,1.994886 0 0 0 -1.922362,-1.991093 5.3549417,5.7218074 0 0 0 -5.013132,-3.730522 z"
           id="path861-58-8"
           inkscape:connector-curvature="0" /><circle
           style="opacity:1;fill:none;fill-opacity:1;stroke:#509fd6;stroke-width:1.2;stroke-miterlimit:4;stroke-dasharray:none;stroke-dashoffset:0;stroke-opacity:1"
           id="path861-58-8-7"
           cx="63.189087"
           cy="27.031374"
           r="1.994886"
           transform="translate(3.5264276e-4,0.19069298)"
           clip-path="url(#clipPath5114-1)" /></g></g><g
       transform="translate(-30.686612,-13.043974)"
       id="layer1"
       inkscape:label="Layer 1"><g
         style="font-style:normal;font-weight:normal;font-size:40px;line-height:1.25;font-family:sans-serif;letter-spacing:0px;word-spacing:0px;fill:#000000;fill-opacity:1;stroke:none"
         id="flowRoot934"
         transform="matrix(0.26458333,0,0,0.26458333,81.228238,19.74349)"
         aria-label="mPW"><path
           id="path142"
           style="font-style:normal;font-variant:normal;font-weight:normal;font-stretch:normal;font-size:96px;font-family:Manjari;-inkscape-font-specification:Manjari;fill:#509fd6;fill-opacity:1"
           d="m -18.255859,12.970703 c -2.296875,-5.3906249 -7.21875,-10.1718749 -14.765625,-10.1718749 -6.046875,0 -11.578125,4.96875 -13.921875,8.9531249 l -0.234375,-5.5312499 c 0.04687,-1.96875 -1.3125,-3.421875 -3.28125,-3.421875 -1.96875,0 -3.421875,1.453125 -3.515625,3.375 l 0.04687,42.1874999 c 0,1.96875 1.546875,3.5625 3.515625,3.5625 1.921875,0 3.515625,-1.59375 3.515625,-3.515625 l 0.04687,-23.859375 c 0,-8.53125 5.015625,-14.6249999 13.96875,-14.6249999 7.6875,0 9.421875,6.7968749 9.421875,14.6249999 l 0.04687,23.71875 c 0,1.96875 1.546875,3.5625 3.515625,3.5625 1.921875,0 3.515625,-1.59375 3.515625,-3.515625 l 0.09375,-23.765625 c 0.04687,-7.5 4.265625,-14.6249999 14.1562496,-14.6249999 7.546875,0 9.1875,6.9374999 9.1875,14.6249999 l 0.046875,23.578125 c 0,1.96875 1.546875,3.5625 3.5156254,3.5625 1.921875,0 3.515625,-1.59375 3.515625,-3.515625 l -0.04687,-23.625 C 14.041016,12.080078 9.8222656,2.7988281 -2.0371094,2.7988281 c -7.9687496,0 -13.1718746,5.203125 -16.2187496,10.1718749 z" /><path
           id="path144"
           style="font-style:normal;font-variant:normal;font-weight:normal;font-stretch:normal;font-size:96px;font-family:Manjari;-inkscape-font-specification:Manjari;fill:#509fd6;fill-opacity:1"
           d="m 28.994141,51.689453 c 1.921875,0 3.515625,-1.59375 3.515625,-3.515625 v -0.04687 l -0.04687,-20.34375 9.140625,-0.1875 c 15.09375,-0.421875 25.5,-6.234375 25.5,-21.7499999 0,-13.359375 -10.125,-19.7812501 -23.484375,-19.7812501 l -14.765625,0.09375 c -2.15625,0.04687 -3.46875,2.296875 -3.46875,3.515625 l 0.09375,58.453125 v 0.04687 c 0,1.921875 1.59375,3.515625 3.515625,3.515625 z M 60.072266,5.8925781 c 0,11.2031249 -7.40625,14.4374999 -18.609375,14.6718749 l -9,0.1875 -0.04687,-27.6093749 h 10.875 c 9.984375,0 16.78125,3.5625 16.78125,12.75 z" /><path
           id="path146"
           style="font-style:normal;font-variant:normal;font-weight:normal;font-stretch:normal;font-size:96px;font-family:Manjari;-inkscape-font-specification:Manjari;fill:#509fd6;fill-opacity:1"
           d="m 111.82227,-11.544922 -15.421879,48.703125 -15.375,-48.5625 c -0.421875,-1.359375 -1.921875,-2.53125 -3.375,-2.53125 -1.921875,0 -3.515625,1.59375 -3.515625,3.515625 0,0.328125 0.09375,0.8437501 0.1875,1.1250001 l 18.75,59.0156249 c 0.421875,1.359375 1.921875,2.4375 3.328125,2.4375 1.40625,0 2.953125,-1.078125 3.375,-2.4375 L 115.15039,1.0644531 130.57227,49.720703 c 0.42187,1.359375 1.92187,2.4375 3.32812,2.4375 1.40625,0 2.95313,-1.078125 3.375,-2.4375 l 18.75,-58.8749999 c 0.0937,-0.28125 0.1875,-0.796875 0.1875,-1.1250001 0,-1.921875 -1.59375,-3.515625 -3.51562,-3.515625 -1.45313,0 -2.95313,1.125 -3.375,2.484375 l -15.42188,48.46875 -15.375,-48.703125 c -0.42187,-1.359375 -1.96875,-2.4375 -3.375,-2.4375 -1.45312,0 -2.90625,1.125 -3.32812,2.4375 z" /></g><g
         style="font-style:normal;font-weight:normal;font-size:96px;line-height:1.25;font-family:sans-serif;letter-spacing:0px;word-spacing:0px;fill:#509fd6;fill-opacity:1;stroke:none"
         id="flowRoot988"
         transform="matrix(0.26458333,0,0,0.26458333,14.539461,-56.884907)"
         aria-label="C"><path
           id="path121"
           style="font-style:normal;font-variant:normal;font-weight:normal;font-stretch:normal;font-size:96px;font-family:Manjari;-inkscape-font-specification:Manjari;fill:#509fd6;fill-opacity:1"
           d="m 129.03906,317.82422 c -1.6875,0 -2.85937,0.75 -3.46875,2.15625 -3.51562,7.82812 -11.90625,14.71875 -22.73437,14.71875 -14.578128,0 -23.437503,-11.57813 -23.437503,-26.0625 0,-14.39063 8.953125,-25.82813 23.390623,-25.82813 10.875,0 19.03125,6.1875 22.73438,13.96875 0.60937,1.35938 1.875,2.0625 3.75,2.0625 1.35937,0 2.95312,-1.64062 2.95312,-3.46875 0,-0.60937 -0.14062,-1.125 -0.375,-1.59375 -4.73437,-9.9375 -15.1875,-18 -29.0625,-18 -18.281248,0 -30.421873,14.53125 -30.421873,32.71875 0,18.46875 11.90625,33.28125 30.562503,33.28125 14.15625,0 24.51562,-8.76562 29.0625,-18.9375 0.23437,-0.46875 0.32812,-1.07812 0.32812,-1.82812 0,-1.5 -1.73437,-3.1875 -3.28125,-3.1875 z" /></g><g
         transform="translate(-0.13229166,0.11229615)"
         id="g5178"><path
           style="fill:none;stroke:#509fd6;stroke-width:1.2;stroke-linecap:butt;stroke-linejoin:miter;stroke-miterlimit:4;stroke-dasharray:none;stroke-opacity:1"
           d="m 128.45511,19.852976 -4.15991,9.571646"
           id="path996"
           inkscape:connector-curvature="0" /><path
           style="fill:none;stroke:#509fd6;stroke-width:1.2;stroke-linecap:butt;stroke-linejoin:miter;stroke-miterlimit:4;stroke-dasharray:none;stroke-opacity:1"
           d="m 125.00951,31.044674 8.43777,0.0482"
           id="path4739"
           inkscape:connector-curvature="0" /><path
           style="fill:none;stroke:#509fd6;stroke-width:1.2;stroke-linecap:butt;stroke-linejoin:miter;stroke-miterlimit:4;stroke-dasharray:none;stroke-opacity:1"
           d="m 129.9248,19.854988 4.20987,9.686608"
           id="path996-2"
           inkscape:connector-curvature="0" /><circle
           style="opacity:1;fill:none;fill-opacity:1;stroke:#509fd6;stroke-width:1.2;stroke-miterlimit:4;stroke-dasharray:none;stroke-dashoffset:0;stroke-opacity:1"
           id="path861-58-8-9-3"
           cx="129.22896"
           cy="18.484928"
           r="1.7626117" /><circle
           style="opacity:1;fill:none;fill-opacity:1;stroke:#509fd6;stroke-width:1.2;stroke-miterlimit:4;stroke-dasharray:none;stroke-dashoffset:0;stroke-opacity:1"
           id="path861-58-8-9-9"
           cx="135.05598"
           cy="31.068773"
           r="1.7626117" /><circle
           style="opacity:1;fill:none;fill-opacity:1;stroke:#509fd6;stroke-width:1.2;stroke-miterlimit:4;stroke-dasharray:none;stroke-dashoffset:0;stroke-opacity:1"
           id="path861-58-8-9-4"
           cx="123.31929"
           cy="31.068773"
           r="1.7626117" /></g></g></g></svg>
